<svg version="1.2" xmlns="http://www.w3.org/2000/svg" viewBox="0 0 29 29" width="29" height="29"><style>.a{fill:#07203e}</style><path class="a" d="m22 19.2c-0.9-1-2.1-1-3 0q-1.1 1-2.2 2.1c-0.2 0.2-0.3 0.3-0.6 0.1-0.4-0.2-0.9-0.4-1.4-0.7-2-1.3-3.8-3-5.3-4.9-0.8-0.9-1.5-1.9-2-3.1-0.1-0.2 0-0.3 0.1-0.5q1.1-1.1 2.2-2.2c1-0.9 1-2.1 0-3.1q-0.9-0.8-1.7-1.7-0.9-0.9-1.8-1.7c-0.9-0.9-2.1-0.9-3 0-0.8 0.7-1.4 1.4-2.2 2.1-0.7 0.7-1 1.5-1.1 2.4-0.1 1.5 0.3 2.9 0.8 4.3 1.1 2.8 2.7 5.4 4.6 7.7q4 4.8 9.5 7.5c1.7 0.8 3.4 1.4 5.3 1.5 1.3 0.1 2.4-0.3 3.3-1.3 0.6-0.7 1.3-1.3 2-1.9 1-1 1-2.2 0-3.2q-1.7-1.7-3.5-3.4z"/><path class="a" d="m20.9 14.4l2.2-0.4c-0.3-2.1-1.3-3.9-2.8-5.4-1.5-1.5-3.5-2.5-5.6-2.8l-0.3 2.2c1.6 0.3 3.1 1 4.3 2.2 1.2 1.2 1.9 2.6 2.2 4.2z"/><path class="a" d="m24.4 4.7c-2.6-2.6-5.8-4.2-9.4-4.7l-0.4 2.2c3.2 0.5 6 1.9 8.2 4.1 2.1 2.1 3.5 4.8 4 7.7l2.2-0.4c-0.6-3.4-2.2-6.5-4.6-8.9z"/></svg>